<svg xmlns="http://www.w3.org/2000/svg" width="1200" height="1200" viewBox="0 0 1200 1200" role="img" aria-labelledby="title desc">
  <title id="title">Imagen protegida</title>
  <desc id="desc">Placeholder para reportes protegidos hasta verificar la cuenta.</desc>
  <defs>
    <linearGradient id="bg" x1="0" y1="0" x2="1" y2="1">
      <stop offset="0" stop-color="#211832"/>
      <stop offset="0.52" stop-color="#151020"/>
      <stop offset="1" stop-color="#2b1b45"/>
    </linearGradient>
    <radialGradient id="glow" cx="50%" cy="42%" r="45%">
      <stop offset="0" stop-color="#8b5cf6" stop-opacity="0.42"/>
      <stop offset="1" stop-color="#8b5cf6" stop-opacity="0"/>
    </radialGradient>
    <filter id="blur">
      <feGaussianBlur stdDeviation="24"/>
    </filter>
  </defs>
  <rect width="1200" height="1200" fill="url(#bg)"/>
  <circle cx="600" cy="500" r="470" fill="url(#glow)"/>
  <g opacity="0.28" filter="url(#blur)">
    <circle cx="246" cy="246" r="110" fill="#a78bfa"/>
    <circle cx="980" cy="322" r="150" fill="#ec4899"/>
    <circle cx="705" cy="930" r="175" fill="#7c3aed"/>
  </g>
  <g transform="translate(430 356)">
    <path d="M170 0 330 70v130c0 150-94 248-160 286C104 448 10 350 10 200V70L170 0Z" fill="#8b5cf6" opacity="0.92"/>
    <path d="M170 60 272 105v88c0 95-56 160-102 190-46-30-102-95-102-190v-88L170 60Z" fill="#151020" opacity="0.72"/>
    <path d="M132 198h76v-40c0-30-16-52-38-52s-38 22-38 52v40Zm-26 0v-40c0-47 27-82 64-82s64 35 64 82v40h16c18 0 32 14 32 32v92c0 18-14 32-32 32H90c-18 0-32-14-32-32v-92c0-18 14-32 32-32h16Z" fill="#f5f3ff"/>
  </g>
  <text x="600" y="900" text-anchor="middle" fill="#f5f3ff" font-family="Arial, sans-serif" font-size="58" font-weight="800">Imagen protegida</text>
  <text x="600" y="972" text-anchor="middle" fill="#c4b5fd" font-family="Arial, sans-serif" font-size="34">Verifica tu cuenta para ver reportes completos</text>
</svg>
